<!-- Generated by IcoMoon.io -->
<svg version="1.1" xmlns="http://www.w3.org/2000/svg" width="32" height="32" viewBox="0 0 32 32">
<title>pgr-p</title>
<path fill="#1e73e9" d="M27.438 1.049h-13.42l-13.933 29.902h7.244l4.865-10.472c0 0 4.094-0.019 7.054 0 4.515 0.030 6.878-1.366 8.719-5.155 0.591-1.218 1.762-3.757 3.092-6.692 2.339-5.172-0.534-7.571-3.621-7.583zM24.229 8.392c-1.307 2.769-2.302 4.834-2.408 5.063-0.592 1.255-1.423 1.812-2.695 1.802l-4.545-0.008 4.297-9.304 4.555 0.005c0.999 0 1.711 0.504 0.796 2.442z"></path>
</svg>
