<svg xmlns="http://www.w3.org/2000/svg" viewBox="0 0 99 59">

<g>
	<g>
		<path d="M7.1,37.6c0.8,0,1.5-0.7,1.5-1.5c0-1.5,0.3-3,0.8-4.4c0.3-0.8,0-1.6-0.8-2s-1.6,0-2,0.8
			c0,0.1-0.1,0.1-0.1,0.2c-0.6,1.7-0.9,3.6-0.9,5.4C5.6,36.9,6.3,37.6,7.1,37.6z"/>
		<path d="M17.3,20.5c-1.8,0.5-3.4,1.3-4.9,2.4c-0.7,0.4-0.9,1.4-0.4,2.1s1.4,0.9,2.1,0.4c0,0,0.1-0.1,0.1-0.1
			c1.2-0.9,2.6-1.6,4-2c0.8-0.3,1.2-1.1,0.9-1.9C18.8,20.7,18,20.3,17.3,20.5L17.3,20.5z"/>
		<path d="M55.9,48.4c-1.4,0.5-2.9,0.8-4.4,0.9c-0.8,0-1.5,0.7-1.5,1.5s0.7,1.5,1.5,1.5h0c1.8-0.1,3.7-0.4,5.4-1.1
			c0.8-0.3,1.2-1.2,0.9-2c0,0,0,0,0,0C57.5,48.5,56.7,48.1,55.9,48.4z"/>
		<path d="M44,47.2c-1.2-0.8-2.3-1.8-3.3-3c-0.5-0.7-1.4-0.8-2.1-0.3c-0.7,0.5-0.8,1.4-0.3,2.1c1.1,1.5,2.5,2.7,4,3.7
			c0.7,0.5,1.6,0.3,2.1-0.4C44.9,48.6,44.7,47.7,44,47.2L44,47.2z"/>
		<path d="M37.3,31.4c-0.2-0.8-1.1-1.2-1.9-1c0,0,0,0,0,0c-0.8,0.2-1.2,1.1-1,1.9c0.4,1.2,0.6,2.5,0.6,3.8
			c0,0.2,0,0.5,0,0.7c0,0.8,0.7,1.4,1.5,1.4h0.1c0.8,0,1.5-0.7,1.4-1.6c0-0.2,0-0.4,0-0.6C38,34.5,37.7,32.9,37.3,31.4z"/>
		<path d="M31.8,23.3c-1.4-1.1-3.1-2-4.8-2.6c-0.8-0.3-1.6,0.1-1.9,0.9c0,0,0,0,0,0c-0.3,0.8,0.2,1.6,0.9,1.9
			c1.4,0.5,2.7,1.2,3.9,2.1c0.3,0.2,0.6,0.3,0.9,0.3c0.8,0,1.5-0.7,1.5-1.5C32.4,24,32.2,23.6,31.8,23.3L31.8,23.3z"/>
		<path d="M75.8,0C63.6,0,53.6,10,53.7,22.3C53.7,38.1,67.6,59,75.8,59S98,38.1,98,22.3C98,10,88.1,0,75.8,0z M75.8,55
			c-4.6,0-18.2-17-18.2-32.7c0-10,8.1-18.2,18.2-18.2S94,12.2,94,22.3C94,38,80.4,55,75.8,55z"/>
		<path d="M75.8,8.6c-6.9,0-12.5,5.6-12.5,12.5s5.6,12.5,12.5,12.5l0,0l0,0c6.9,0,12.5-5.6,12.5-12.5S82.7,8.6,75.8,8.6
			C75.8,8.6,75.8,8.6,75.8,8.6z M75.8,30.6v1.5V30.6c-5.2,0-9.5-4.2-9.5-9.5s4.2-9.5,9.5-9.5s9.5,4.2,9.5,9.5c0,0,0,0,0,0.1
			C85.3,26.4,81,30.6,75.8,30.6L75.8,30.6z"/>
		<path d="M81.3,16.3c-0.7-0.4-1.6-0.3-2,0.4c0,0,0,0,0,0l-4,6.3l-2-2.3c-0.6-0.6-1.5-0.7-2.1-0.1
			c-0.6,0.6-0.7,1.5-0.1,2.1l0,0l3.3,3.7c0.3,0.3,0.7,0.5,1.1,0.5h0.1c0.5,0,0.9-0.3,1.1-0.7l5.1-7.9C82.2,17.7,82,16.8,81.3,16.3z"
			/>
		<path d="M7.1,47.8c-1.4,0-2.6,1.1-2.6,2.5c0,1.4,1.1,2.6,2.5,2.6c1.4,0,2.6-1.1,2.6-2.5c0,0,0,0,0,0
			C9.6,48.9,8.5,47.8,7.1,47.8z"/>
		<path d="M7.1,42.1c-4.5,0.2-8.1,4-7.9,8.5c0.2,4.3,3.6,7.8,7.9,7.9l0,0c4.5-0.2,8.1-4,7.9-8.5
			C14.9,45.7,11.4,42.2,7.1,42.1z M7.1,55.5V57V55.5c-2.9-0.1-5.1-2.6-5-5.4c0.1-2.7,2.3-4.9,5-5c2.9,0.1,5.1,2.6,5,5.4
			C12,53.2,9.8,55.4,7.1,55.5z"/>
	</g>
</g>
</svg>
