<svg xmlns="http://www.w3.org/2000/svg" viewBox="0 0 100 100">
<g>
	<path d="M36.8,52c0.5,0,1-0.2,1.4-0.6l3.2-3.2c0.8-0.8,0.8-2,0-2.7c-0.8-0.8-2-0.8-2.7,0l-3.2,3.2
		c-0.8,0.8-0.8,2,0,2.7C35.8,51.8,36.3,52,36.8,52z"/>
	<path d="M47.9,64.6c0.4,0.4,0.9,0.6,1.4,0.6c0.5,0,1-0.2,1.4-0.6l7.8-7.8c0.8-0.8,0.8-2,0-2.7
		c-0.8-0.8-2-0.8-2.7,0l-7.8,7.8C47.1,62.6,47.1,63.9,47.9,64.6z"/>
	<path d="M35.5,64.2c0.4,0.4,0.9,0.6,1.4,0.6c0.5,0,1-0.2,1.4-0.6l9.7-9.7c0.8-0.8,0.8-2,0-2.7
		c-0.8-0.8-2-0.8-2.7,0l-9.7,9.7C34.7,62.2,34.7,63.5,35.5,64.2z"/>
	<path d="M47.9,22.2c-0.8-0.8-2-0.8-2.7,0L35.5,32c-0.8,0.8-0.8,2,0,2.7c0.4,0.4,0.9,0.6,1.4,0.6
		c0.5,0,1-0.2,1.4-0.6l9.7-9.7C48.7,24.2,48.7,23,47.9,22.2z"/>
	<path d="M79.4,37.2V11.3c0-5.8-4.7-10.6-10.6-10.6H26.4c-5.8,0-10.6,4.7-10.6,10.6v10.4
		c-4.7-0.3-9,3.1-9.6,7.8c-0.2,2.1,0.3,4.1,1.3,5.8c-0.6,0.3-1.2,0.6-1.7,1.1c-2,1.6-3.2,3.8-3.5,6.3C2,45.9,3.3,49,5.7,51
		c-1.4,1.4-2.4,3.2-2.7,5.3c-0.3,2.4,0.4,4.7,1.8,6.6c0.4,0.5,0.9,1,1.4,1.4c-1,1.1-1.6,2.5-1.8,4.1c-0.2,2,0.3,4.1,1.6,5.7
		c1.3,1.6,3.1,2.6,5,2.9c0.3,0.1,2.2,0.3,3.8,0.5c0.3,0,0.7,0.1,1,0.1v11.8c0,5.8,4.7,10.6,10.6,10.6h42.5c5.8,0,10.6-4.7,10.6-10.6
		v-2c8.8-2.4,14.8-8.4,17.3-18C102.1,48.5,85.8,39.7,79.4,37.2z M15.8,72.7c-0.1,0-0.2,0-0.3,0c-1.5-0.2-3.3-0.5-3.8-0.5
		c-0.8-0.1-1.4-0.5-1.9-1.1c-0.5-0.6-0.7-1.4-0.6-2.1c0.1-0.8,0.5-1.4,1.1-1.9c0.6-0.5,1.3-0.7,2-0.6l3.5,0.4V72.7z M15.8,62
		L13,61.7c0,0-0.1,0-0.1,0l-1.6-0.2c-1.1-0.1-2-0.7-2.7-1.5c-0.7-0.9-1-1.9-0.8-3c0.3-2.2,2.3-3.8,4.5-3.6l0,0l3.5,0.4V62z
		 M15.8,48.9l-4.7-0.6c-2.5-0.3-4.3-2.6-4-5.1c0.1-1.2,0.8-2.3,1.7-3.1c1-0.8,2.2-1.1,3.4-1l3.6,0.4V48.9z M15.8,34.7l-1-0.1
		c-1.1-0.1-2.2-0.7-2.9-1.5c-0.7-0.9-1-1.9-0.8-3c0.3-2.2,2.5-3.8,4.7-3.6l0.1,0V34.7z M74.6,89.4c0,3.2-2.6,5.8-5.8,5.8H26.4
		c-3.2,0-5.8-2.6-5.8-5.8V11.3c0-3.2,2.6-5.8,5.8-5.8h42.5c3.2,0,5.8,2.6,5.8,5.8v24.4l-4.5-1.1V15c0-2.9-2.3-5.2-5.2-5.2H30.3
		c-2.9,0-5.2,2.3-5.2,5.2v59c0,2.9,2.3,5.2,5.2,5.2h34.6c2.9,0,5.2-2.3,5.2-5.2V59.9c0.9,0.4,1.9,0.7,3.1,0.9l1.4,0.4V89.4z
		 M56.3,49.3c0.6,0.1,1.1,0.2,1.6,0.4c2.1,0.5,3,1.6,4.5,3.9c0.9,1.3,2.5,2.7,3.9,4V74c0,0.7-0.6,1.3-1.3,1.3H30.3
		c-0.7,0-1.3-0.6-1.3-1.3V15c0-0.7,0.6-1.3,1.3-1.3h34.6c0.7,0,1.3,0.6,1.3,1.3v18.7l-14-3.3c-1.8-0.4-3.6,0-5.1,1.1
		c-1.8,1.4-3,3.8-3.1,6.3C43.8,46.7,51.9,48.4,56.3,49.3z M92,68.2c-2,7.5-6.1,12.1-12.6,14.2V59.5c0-1.1-0.7-2-1.7-2.3l0,0l-3.3-1
		c-4.2-0.8-5.7-3-7.4-5.4c-1.6-2.3-4-5-8-5.8c-0.5-0.1-1.1-0.2-1.7-0.4c-5.1-1.1-8.5-2.1-8.4-6.6c0-1,0.5-2.1,1.2-2.6
		c0.4-0.3,0.8-0.3,1.1-0.2L75.8,41C76.7,41.2,97.5,47.1,92,68.2z"/>
	<ellipse cx="47.6" cy="87.1" rx="3.8" ry="3.8"/>
</g>
</svg>
