<svg xmlns="http://www.w3.org/2000/svg" viewBox="0 0 100 100">
<g>
	<path d="M20.3,76.6h11.6v4.9h-9.2v11.7l1.8,1.8h52.1l1.8-1.8V81.5h-9.2v-4.9H81c1.4,0,2.4,1.1,2.4,2.4v15.2
		c0,0.7-0.3,1.3-0.7,1.7l-3.3,3.2c-0.5,0.5-1.1,0.7-1.7,0.7H23.6c-0.6,0-1.3-0.3-1.7-0.7L18.6,96c-0.5-0.5-0.7-1.1-0.7-1.7V79.1
		C17.8,77.7,18.9,76.6,20.3,76.6z"/>
	<path d="M49.9,0.4c0.3,0,0.6,0,0.9,0c20.9,0.4,42.1,15.4,42.1,43.2v31.5c0,3.5-2.8,6.3-6.3,6.3H69.3v-4.9
		h17.3c0.8,0,1.4-0.6,1.4-1.4V43.7C88,19,69.3,5.7,50.7,5.3c-10.4-0.2-20.2,3.5-27,10.2c-6.8,6.7-10.5,16.1-10.5,27.1v32.7
		c0,0.7,0.6,1.3,1.3,1.3h17.4v4.9H14.6c-3.4,0-6.2-2.8-6.2-6.2V42.6c0-12.3,4.1-22.9,11.9-30.6C27.9,4.6,38.6,0.4,49.9,0.4z"/>
	<path d="M50.3,23.1c12.2,0,21.1,8.1,21.1,19.1v36.9h-4.1V42.2c0-8.8-7-15-17-15c-8.1,0-16.3,5-16.3,14.6
		v37.3h-4.1V41.7C29.9,31.1,38.7,23.1,50.3,23.1z"/>
	<path d="M93.9,40.8c1,0,1.9,0.8,2,1.9c0.1,1.1-0.7,2.1-1.9,2.2l-9.7,0.9c-1.1,0.1-2.1-0.7-2.2-1.9
		c-0.1-1.1,0.7-2.1,1.9-2.2l9.7-0.9L93.9,40.8z M17.1,44.6c1,0,1.9,0.8,2,1.9c0.1,1.1-0.7,2.1-1.9,2.2l-9.7,0.9
		c-1.1,0.1-2.1-0.7-2.2-1.9c-0.1-1.1,0.7-2.1,1.9-2.2l9.7-0.9L17.1,44.6z M93.9,52.4c1,0,1.9,0.8,2,1.9c0.1,1.1-0.7,2.1-1.9,2.2
		l-9.7,0.9c-1.1,0.1-2.1-0.7-2.2-1.9c-0.1-1.1,0.7-2.1,1.9-2.2l9.7-0.9L93.9,52.4z M17.1,56.1c1,0,1.9,0.8,2,1.9
		c0.1,1.1-0.7,2.1-1.9,2.2L7.5,61c-1.1,0.1-2.1-0.7-2.2-1.9C5.2,58.1,6,57.1,7.2,57l9.7-0.9L17.1,56.1z M93.9,63.9
		c1,0,1.9,0.8,2,1.9c0.1,1.1-0.7,2.1-1.9,2.2l-9.7,0.9c-1.1,0.1-2.1-0.7-2.2-1.9c-0.1-1.1,0.7-2.1,1.9-2.2l9.7-0.9L93.9,63.9z
		 M17.1,67.6c1,0,1.9,0.8,2,1.9c0.1,1.1-0.7,2.1-1.9,2.2l-9.7,0.9c-1.1,0.1-2.1-0.7-2.2-1.9c-0.1-1.1,0.7-2.1,1.9-2.2l9.7-0.9
		L17.1,67.6z"/>
	<path d="M41.6,18.2c1.2,0,2.3-1,2.3-2.3c0-1.2-1-2.3-2.3-2.3c-1.2,0-2.3,1-2.3,2.3
		C39.4,17.2,40.4,18.2,41.6,18.2"/>
	<ellipse cx="41.6" cy="15.9" rx="2.3" ry="2.3"/>
	<path d="M41.6,12.8c1.7,0,3.1,1.4,3.1,3.1c0,1.7-1.4,3.1-3.1,3.1c-1.7,0-3.1-1.4-3.1-3.1
		C38.6,14.2,39.9,12.8,41.6,12.8z M41.6,17.4c0.8,0,1.4-0.6,1.4-1.4c0-0.8-0.6-1.4-1.4-1.4s-1.4,0.6-1.4,1.4
		C40.2,16.7,40.8,17.4,41.6,17.4z"/>
	<path d="M59.9,18.2c1.2,0,2.3-1,2.3-2.3c0-1.2-1-2.3-2.3-2.3s-2.3,1-2.3,2.3C57.6,17.2,58.6,18.2,59.9,18.2"
		/>
	<ellipse cx="59.9" cy="15.9" rx="2.3" ry="2.3"/>
	<path d="M59.9,12.8c1.7,0,3.1,1.4,3.1,3.1c0,1.7-1.4,3.1-3.1,3.1s-3.1-1.4-3.1-3.1
		C56.8,14.2,58.2,12.8,59.9,12.8z M59.9,17.4c0.8,0,1.4-0.6,1.4-1.4c0-0.8-0.6-1.4-1.4-1.4s-1.4,0.6-1.4,1.4
		C58.4,16.7,59.1,17.4,59.9,17.4z"/>
	<path d="M50.7,18.2c1.2,0,2.3-1,2.3-2.3c0-1.2-1-2.3-2.3-2.3c-1.2,0-2.3,1-2.3,2.3
		C48.5,17.2,49.5,18.2,50.7,18.2"/>
	<ellipse cx="50.7" cy="15.9" rx="2.3" ry="2.3"/>
	<path d="M50.7,12.8c1.7,0,3.1,1.4,3.1,3.1c0,1.7-1.4,3.1-3.1,3.1c-1.7,0-3.1-1.4-3.1-3.1
		C47.7,14.2,49.1,12.8,50.7,12.8z M50.7,17.4c0.8,0,1.4-0.6,1.4-1.4c0-0.8-0.7-1.4-1.4-1.4c-0.8,0-1.4,0.6-1.4,1.4
		C49.3,16.7,50,17.4,50.7,17.4z"/>
	<rect x="31.9" y="76.6" width="37.5" height="4.9"/>
	<path d="M51.3,30.9c0.4,0,0.8,0.2,1.2,0.5c0.6,0.6,0.6,1.7,0,2.3l-12,12c-0.6,0.6-1.7,0.6-2.3,0
		c-0.6-0.6-0.6-1.7,0-2.3l12-12C50.4,31.1,50.9,30.9,51.3,30.9z M60.1,35.5c0.4,0,0.8,0.2,1.2,0.5c0.6,0.6,0.6,1.7,0,2.3L40.5,59
		c-0.6,0.6-1.7,0.6-2.3,0c-0.6-0.6-0.6-1.7,0-2.3l20.8-20.8C59.3,35.6,59.7,35.5,60.1,35.5z M61.9,47c0.4,0,0.8,0.2,1.2,0.5
		c0.6,0.6,0.6,1.7,0,2.3L40.5,72.4c-0.6,0.6-1.7,0.6-2.3,0s-0.6-1.7,0-2.3l22.6-22.6C61.1,47.2,61.5,47,61.9,47z M61.9,60.4
		c0.4,0,0.8,0.2,1.2,0.5c0.6,0.6,0.6,1.7,0,2.3l-9.6,9.6c-0.6,0.6-1.7,0.6-2.3,0c-0.6-0.6-0.6-1.7,0-2.3l9.6-9.6
		C61.1,60.6,61.5,60.4,61.9,60.4z"/>
</g>
</svg>
