<svg xmlns="http://www.w3.org/2000/svg" viewBox="0 0 32 48"><defs><style>.cls-1{fill:#fff;}.cls-2{fill:#259ed9;}.cls-3{fill:#304c6b;}.cls-4{fill:none;stroke:#93ceeb;stroke-linecap:round;stroke-linejoin:round;stroke-width:2px;}</style></defs><title>Asset 44</title><g id="Layer_2" data-name="Layer 2"><g id="Layer_1-2" data-name="Layer 1"><path class="cls-1" d="M25.38,1H6.62A5.87,5.87,0,0,0,.67,6.78V41.22A5.87,5.87,0,0,0,6.62,47H25.38a5.87,5.87,0,0,0,5.95-5.78V6.78A5.87,5.87,0,0,0,25.38,1Z"/><path class="cls-2" d="M23.1,6H8.9C7.12,6,6,7.54,6,9.43V33.22C6,35.12,7.12,37,8.9,37H23.1c1.78,0,2.9-1.88,2.9-3.78V9.43C26,7.54,24.88,6,23.1,6Z"/><path class="cls-3" d="M23.57,7A1.56,1.56,0,0,1,25,8.66V34a1.56,1.56,0,0,1-1.43,1.66H8.43A1.56,1.56,0,0,1,7,34V8.66A1.56,1.56,0,0,1,8.43,7H23.57m0-2H8.43A3.55,3.55,0,0,0,5,8.66V34a3.55,3.55,0,0,0,3.43,3.66H23.57A3.55,3.55,0,0,0,27,34V8.66A3.55,3.55,0,0,0,23.57,5Z"/><path class="cls-3" d="M25.79,2A4.13,4.13,0,0,1,30,6V42a4.13,4.13,0,0,1-4.21,4H6.21A4.13,4.13,0,0,1,2,42V6A4.13,4.13,0,0,1,6.21,2H25.79m0-2H6.21A6.13,6.13,0,0,0,0,6V42a6.13,6.13,0,0,0,6.21,6H25.79A6.13,6.13,0,0,0,32,42V6a6.13,6.13,0,0,0-6.21-6Z"/><line class="cls-4" x1="10" y1="17" x2="17" y2="10"/><line class="cls-4" x1="15" y1="33" x2="21.5" y2="26.5"/><line class="cls-4" x1="10" y1="24" x2="21" y2="13"/><line class="cls-4" x1="11" y1="30" x2="21" y2="20"/><circle class="cls-3" cx="16" cy="42" r="2"/></g></g></svg>