<svg xmlns="http://www.w3.org/2000/svg" viewBox="0 0 46 48"><defs><style>.cls-1{fill:#fff;}.cls-2{fill:#e5f1f9;}.cls-3{fill:#259ed9;}.cls-4,.cls-6{fill:none;stroke:#304c6b;stroke-width:2px;}.cls-4{stroke-linecap:round;stroke-linejoin:round;}.cls-5{fill:#304c6b;}.cls-6{stroke-miterlimit:10;}</style></defs><title>Asset 46</title><g id="Layer_2" data-name="Layer 2"><g id="Layer_1-2" data-name="Layer 1"><path class="cls-1" d="M23.48,1h-1A19.51,19.51,0,0,0,3,20.42v14.7A2,2,0,0,0,5,37H41a2,2,0,0,0,2-1.88V20.42A19.51,19.51,0,0,0,23.48,1Z"/><path class="cls-2" d="M33,37V21.74C33,15.81,28.61,11,23.19,11h-.37C17.39,11,13,15.81,13,21.74V37"/><path class="cls-3" d="M38,37v8a2,2,0,0,1-2,2H10a2,2,0,0,1-2-2V37"/><line class="cls-4" x1="17" y1="23" x2="24" y2="16"/><line class="cls-4" x1="17" y1="30" x2="28" y2="19"/><line class="cls-4" x1="21" y1="33" x2="28" y2="26"/><path class="cls-5" d="M23.51,2A18.55,18.55,0,0,1,42,20.49V36H4V20.49A18.55,18.55,0,0,1,22.49,2H24m-.49-2h-1A20.49,20.49,0,0,0,2,20.49V36a2,2,0,0,0,2,2H42a2,2,0,0,0,2-2V20.49A20.49,20.49,0,0,0,23.51,0Z"/><path class="cls-6" d="M33,37V21.74C33,15.81,28.61,11,23.19,11h-.37C17.39,11,13,15.81,13,21.74V37"/><circle class="cls-5" cx="23" cy="6.5" r="1.5"/><circle class="cls-5" cx="17.5" cy="6.5" r="1.5"/><circle class="cls-5" cx="28.5" cy="6.5" r="1.5"/><path class="cls-4" d="M38,37v8a2,2,0,0,1-2,2H10a2,2,0,0,1-2-2V37"/><polygon class="cls-5" points="6 30 0 31 0 34 6 33 6 30 6 30"/><polygon class="cls-5" points="6 24 0 25 0 28 6 27 6 24 6 24"/><polygon class="cls-5" points="6 18 0 19 0 22 6 21 6 18 6 18"/><polygon class="cls-5" points="46 28 40 29 40 32 46 31 46 28 46 28"/><polygon class="cls-5" points="46 22 40 23 40 26 46 25 46 22 46 22"/><polygon class="cls-5" points="46 16 40 17 40 20 46 19 46 16 46 16"/></g></g></svg>